<?xml version="1.0" encoding="utf-8"?>
<!-- Generator: Adobe Illustrator 18.1.1, SVG Export Plug-In . SVG Version: 6.00 Build 0)  -->
<svg version="1.1" xmlns="http://www.w3.org/2000/svg" xmlns:xlink="http://www.w3.org/1999/xlink" x="0px" y="0px"
	 viewBox="0 0 211.3 30.3" enable-background="new 0 0 211.3 30.3" xml:space="preserve">
<g id="Layer_1">
	<g>
		<path fill-rule="evenodd" clip-rule="evenodd" fill="#FF6B00" d="M20.5,15c3-3.3,5-5.6,8-9c2.2-2.5-1.1-3.3-3.9-2.8
			c-1.5,0.3-4.3,2.6-5.1,3.4c-1.1,1.3-2.2,2.6-4.6,5.2c-4,4.2-7.6,0.4-12.3-2.3c3.8,4.3,8.6,9.1,12.2,9.7C16.9,19.7,19,16.6,20.5,15
			z"/>
		<path fill-rule="evenodd" clip-rule="evenodd" fill="#FF6B00" d="M18.4,5.8c1.5-1.7-1.3-3-4.4-0.7c-2.4,2.3-1.5,1.3-3.3,3.1
			c-2.5,2.5-4.1,1.2-7.4-0.7c3.5,3.4,4.3,4.2,7.2,4.6C13,12.4,16.2,8.3,18.4,5.8z"/>
		<path fill="#FF6B00" d="M73.6,9.6c5.4,0,9.7,3.8,9.7,9.2c0,5.4-4.3,9.2-9.7,9.2c-5.4,0-9.7-3.8-9.7-9.2C64,13.4,68.3,9.6,73.6,9.6
			z M73.7,24.3c2.8,0,5.2-2.2,5.2-5.5c0-3.3-2.4-5.5-5.2-5.5c-2.9,0-5.3,2.3-5.3,5.5C68.4,22.1,70.8,24.3,73.7,24.3z M85.2,10l4.2,0
			l0,3c0,0.7-0.1,1.2-0.1,1.2l0.1,0c0.8-2.5,2.9-4.5,5.6-4.5c0.4,0,0.8,0.1,0.8,0.1l0,4.3c0,0-0.5-0.1-1-0.1c-1.9,0-4,1.1-4.8,3.7
			c-0.3,0.9-0.4,1.8-0.4,2.9l0,7l-4.4,0L85.2,10z M97.5,3.1l4.4,0l0,13.1l2.2,0l4.3-6.2l4.9,0l-5.6,7.9l0,0.1l6.3,9.7l-5.1,0
			l-4.7-7.7l-2.3,0l0,7.7l-4.4,0L97.5,3.1z"/>
		<path fill="#FF6B00" d="M115.6,3.1l14.1,0l0,3.8l-9.7,0l0,7l8.1,0l0,3.8l-8.1,0l0,9.9l-4.5,0L115.6,3.1z"/>
		<path fill="#FF6B00" d="M130.5,9.7l4.4,0l0,10.4c0,2.1,0.6,3.6,2.7,3.6c3.2,0,4.9-2.8,4.9-6l0-8.1l4.4,0l0,17.6l-4.2,0l0-2
			c0-0.7,0.1-1.2,0.1-1.2l-0.1,0c-0.9,1.8-3.1,3.7-6.1,3.7c-3.8,0-6.1-1.9-6.1-6.7L130.5,9.7z"/>
		<path fill="#FF6B00" d="M150.6,22.1c0,0,1.9,1.9,4.8,1.9c1.2,0,2.3-0.6,2.3-1.6c0-2.6-8.6-2.3-8.6-8c0-3.3,2.9-5.2,6.7-5.2
			c4,0,5.9,2,5.9,2l-1.6,3.3c0,0-1.6-1.5-4.3-1.5c-1.1,0-2.2,0.5-2.2,1.6c0,2.5,8.6,2.2,8.6,7.9c0,2.9-2.6,5.3-6.7,5.3
			c-4.4,0-6.8-2.6-6.8-2.6L150.6,22.1z"/>
		<path fill="#FF6B00" d="M164,3.1l4.4,0l0,3.9L164,7L164,3.1z M164,10l4.4,0l0,17.6l-4.4,0L164,10z"/>
		<path fill="#FF6B00" d="M179.9,9.3c5.4,0,9.7,3.8,9.7,9.2c0,5.4-4.3,9.2-9.7,9.2c-5.4,0-9.7-3.8-9.7-9.2
			C170.2,13.1,174.5,9.3,179.9,9.3z M179.9,24c2.8,0,5.2-2.2,5.2-5.5c0-3.3-2.4-5.5-5.2-5.5c-2.9,0-5.3,2.2-5.3,5.5
			C174.7,21.8,177.1,24,179.9,24z"/>
		<path fill="#FF6B00" d="M191.4,9.9l4.2,0l0,2c0,0.7-0.1,1.2-0.1,1.2l0.1,0c0.8-1.5,2.7-3.7,6.3-3.7c3.9,0,6.1,2,6.1,6.7l0,11.4
			l-4.4,0l0-10.4c0-2.1-0.6-3.6-2.8-3.6c-2.4,0-4.1,1.5-4.7,3.6c-0.2,0.7-0.3,1.5-0.3,2.4l0,8.1l-4.4,0L191.4,9.9z"/>
		<path fill="#FF6B00" d="M60.7,3.1l-4,17c-0.3,1.4-0.4,2.6-0.4,2.6l-0.1,0c0,0-0.1-1.2-0.5-2.6l-4.4-17l-3.9,0
			c0,0-4.8,19.6-4.9,19.6l-0.1,0l-3-16.5l-3.4,5l3.6,16.5l5.2,0l3.8-14.5c0.4-1.6,0.6-3.2,0.6-3.2l0.1,0c0,0,0.2,1.6,0.6,3.2
			l3.8,14.5l5.2,0l6.3-24.6L60.7,3.1z"/>
		<path fill="#FF6B00" d="M38.9,4.5C37.7,2.5,34,2.6,31.4,5c-3.6,4.1-8.7,9.9-12.3,14c-2,2.2-2.7,3.1-5.6,1.9
			c-2.6-1.1-7.5-5.5-11.3-8.6c2.7,3.7,8.8,13.3,13.3,15.1c1.5,0.6,3.8,0.4,5.8-1.5c4.1-4.1,9.3-10.8,14.3-16.6L38.9,4.5z"/>
	</g>
</g>
<g id="Layer_2">
</g>
<g id="Layer_4">
</g>
</svg>
